<svg width="500" height="500" viewBox="0 0 500 500" fill="none" xmlns="http://www.w3.org/2000/svg">
<g clip-path="url(#clip0_353_2413)">
<rect width="125" height="125" fill="white"/>
<rect width="125" height="125" fill="#067D8C"/>
<g clip-path="url(#clip1_353_2413)">
<path d="M0 125C0 55.9644 55.9644 0 125 0V125H0Z" fill="#004149"/>
</g>
</g>
<g clip-path="url(#clip2_353_2413)">
<rect width="125" height="125" transform="translate(125)" fill="white"/>
<rect width="125" height="125" transform="translate(125)" fill="#067D8C"/>
<g clip-path="url(#clip3_353_2413)">
<path d="M125 125C125 55.9644 180.964 0 250 0V125H125Z" fill="#004149"/>
</g>
</g>
<g clip-path="url(#clip4_353_2413)">
<rect width="125" height="125" transform="translate(0 125)" fill="white"/>
<rect width="125" height="125" transform="translate(0 125)" fill="#067D8C"/>
<g clip-path="url(#clip5_353_2413)">
<path d="M0 250C0 180.964 55.9644 125 125 125V250H0Z" fill="#004149"/>
</g>
</g>
<g clip-path="url(#clip6_353_2413)">
<rect width="125" height="125" transform="translate(125 125)" fill="white"/>
<rect width="125" height="125" transform="translate(125 125)" fill="#067D8C"/>
<g clip-path="url(#clip7_353_2413)">
<path d="M125 250C125 180.964 180.964 125 250 125V250H125Z" fill="#004149"/>
</g>
</g>
<g clip-path="url(#clip8_353_2413)">
<rect width="125" height="125" transform="translate(0 250)" fill="white"/>
<rect width="125" height="125" transform="translate(0 250)" fill="#067D8C"/>
<g clip-path="url(#clip9_353_2413)">
<path d="M0 375C0 305.964 55.9644 250 125 250V375H0Z" fill="#004149"/>
</g>
</g>
<g clip-path="url(#clip10_353_2413)">
<rect width="125" height="125" transform="translate(125 250)" fill="white"/>
<rect width="125" height="125" transform="translate(125 250)" fill="#067D8C"/>
<g clip-path="url(#clip11_353_2413)">
<path d="M125 375C125 305.964 180.964 250 250 250V375H125Z" fill="#004149"/>
</g>
</g>
<g clip-path="url(#clip12_353_2413)">
<rect width="125" height="125" transform="translate(250)" fill="white"/>
<rect width="125" height="125" transform="translate(250)" fill="#067D8C"/>
<g clip-path="url(#clip13_353_2413)">
<path d="M250 125C250 55.9644 305.964 0 375 0V125H250Z" fill="#004149"/>
</g>
</g>
<g clip-path="url(#clip14_353_2413)">
<rect width="125" height="125" transform="translate(250 125)" fill="white"/>
<rect width="125" height="125" transform="translate(250 125)" fill="#067D8C"/>
<g clip-path="url(#clip15_353_2413)">
<path d="M250 250C250 180.964 305.964 125 375 125V250H250Z" fill="#004149"/>
</g>
</g>
<g clip-path="url(#clip16_353_2413)">
<rect width="125" height="125" transform="translate(250 250)" fill="white"/>
<rect width="125" height="125" transform="translate(250 250)" fill="#067D8C"/>
<g clip-path="url(#clip17_353_2413)">
<path d="M250 375C250 305.964 305.964 250 375 250V375H250Z" fill="#004149"/>
</g>
</g>
<g clip-path="url(#clip18_353_2413)">
<rect width="125" height="125" transform="translate(0 375)" fill="white"/>
<rect width="125" height="125" transform="translate(0 375)" fill="#067D8C"/>
<g clip-path="url(#clip19_353_2413)">
<path d="M0 500C0 430.964 55.9644 375 125 375V500H0Z" fill="#004149"/>
</g>
</g>
<g clip-path="url(#clip20_353_2413)">
<rect width="125" height="125" transform="translate(125 375)" fill="white"/>
<rect width="125" height="125" transform="translate(125 375)" fill="#067D8C"/>
<g clip-path="url(#clip21_353_2413)">
<path d="M125 500C125 430.964 180.964 375 250 375V500H125Z" fill="#004149"/>
</g>
</g>
<g clip-path="url(#clip22_353_2413)">
<rect width="125" height="125" transform="translate(375)" fill="white"/>
<rect width="125" height="125" transform="translate(375)" fill="#067D8C"/>
<g clip-path="url(#clip23_353_2413)">
<path d="M375 125C375 55.9644 430.964 0 500 0V125H375Z" fill="#004149"/>
</g>
</g>
<g clip-path="url(#clip24_353_2413)">
<rect width="125" height="125" transform="translate(375 125)" fill="white"/>
<rect width="125" height="125" transform="translate(375 125)" fill="#067D8C"/>
<g clip-path="url(#clip25_353_2413)">
<path d="M375 250C375 180.964 430.964 125 500 125V250H375Z" fill="#004149"/>
</g>
</g>
<g clip-path="url(#clip26_353_2413)">
<rect width="125" height="125" transform="translate(375 250)" fill="white"/>
<rect width="125" height="125" transform="translate(375 250)" fill="#067D8C"/>
<g clip-path="url(#clip27_353_2413)">
<path d="M375 375C375 305.964 430.964 250 500 250V375H375Z" fill="#004149"/>
</g>
</g>
<g clip-path="url(#clip28_353_2413)">
<rect width="125" height="125" transform="translate(250 375)" fill="white"/>
<rect width="125" height="125" transform="translate(250 375)" fill="#067D8C"/>
<g clip-path="url(#clip29_353_2413)">
<path d="M250 500C250 430.964 305.964 375 375 375V500H250Z" fill="#004149"/>
</g>
</g>
<g clip-path="url(#clip30_353_2413)">
<rect width="125" height="125" transform="translate(375 375)" fill="white"/>
<rect width="125" height="125" transform="translate(375 375)" fill="#067D8C"/>
<g clip-path="url(#clip31_353_2413)">
<path d="M375 500C375 430.964 430.964 375 500 375V500H375Z" fill="#004149"/>
</g>
</g>
<defs>
<clipPath id="clip0_353_2413">
<rect width="125" height="125" fill="white"/>
</clipPath>
<clipPath id="clip1_353_2413">
<rect width="125" height="125" fill="white"/>
</clipPath>
<clipPath id="clip2_353_2413">
<rect width="125" height="125" fill="white" transform="translate(125)"/>
</clipPath>
<clipPath id="clip3_353_2413">
<rect width="125" height="125" fill="white" transform="translate(125)"/>
</clipPath>
<clipPath id="clip4_353_2413">
<rect width="125" height="125" fill="white" transform="translate(0 125)"/>
</clipPath>
<clipPath id="clip5_353_2413">
<rect width="125" height="125" fill="white" transform="translate(0 125)"/>
</clipPath>
<clipPath id="clip6_353_2413">
<rect width="125" height="125" fill="white" transform="translate(125 125)"/>
</clipPath>
<clipPath id="clip7_353_2413">
<rect width="125" height="125" fill="white" transform="translate(125 125)"/>
</clipPath>
<clipPath id="clip8_353_2413">
<rect width="125" height="125" fill="white" transform="translate(0 250)"/>
</clipPath>
<clipPath id="clip9_353_2413">
<rect width="125" height="125" fill="white" transform="translate(0 250)"/>
</clipPath>
<clipPath id="clip10_353_2413">
<rect width="125" height="125" fill="white" transform="translate(125 250)"/>
</clipPath>
<clipPath id="clip11_353_2413">
<rect width="125" height="125" fill="white" transform="translate(125 250)"/>
</clipPath>
<clipPath id="clip12_353_2413">
<rect width="125" height="125" fill="white" transform="translate(250)"/>
</clipPath>
<clipPath id="clip13_353_2413">
<rect width="125" height="125" fill="white" transform="translate(250)"/>
</clipPath>
<clipPath id="clip14_353_2413">
<rect width="125" height="125" fill="white" transform="translate(250 125)"/>
</clipPath>
<clipPath id="clip15_353_2413">
<rect width="125" height="125" fill="white" transform="translate(250 125)"/>
</clipPath>
<clipPath id="clip16_353_2413">
<rect width="125" height="125" fill="white" transform="translate(250 250)"/>
</clipPath>
<clipPath id="clip17_353_2413">
<rect width="125" height="125" fill="white" transform="translate(250 250)"/>
</clipPath>
<clipPath id="clip18_353_2413">
<rect width="125" height="125" fill="white" transform="translate(0 375)"/>
</clipPath>
<clipPath id="clip19_353_2413">
<rect width="125" height="125" fill="white" transform="translate(0 375)"/>
</clipPath>
<clipPath id="clip20_353_2413">
<rect width="125" height="125" fill="white" transform="translate(125 375)"/>
</clipPath>
<clipPath id="clip21_353_2413">
<rect width="125" height="125" fill="white" transform="translate(125 375)"/>
</clipPath>
<clipPath id="clip22_353_2413">
<rect width="125" height="125" fill="white" transform="translate(375)"/>
</clipPath>
<clipPath id="clip23_353_2413">
<rect width="125" height="125" fill="white" transform="translate(375)"/>
</clipPath>
<clipPath id="clip24_353_2413">
<rect width="125" height="125" fill="white" transform="translate(375 125)"/>
</clipPath>
<clipPath id="clip25_353_2413">
<rect width="125" height="125" fill="white" transform="translate(375 125)"/>
</clipPath>
<clipPath id="clip26_353_2413">
<rect width="125" height="125" fill="white" transform="translate(375 250)"/>
</clipPath>
<clipPath id="clip27_353_2413">
<rect width="125" height="125" fill="white" transform="translate(375 250)"/>
</clipPath>
<clipPath id="clip28_353_2413">
<rect width="125" height="125" fill="white" transform="translate(250 375)"/>
</clipPath>
<clipPath id="clip29_353_2413">
<rect width="125" height="125" fill="white" transform="translate(250 375)"/>
</clipPath>
<clipPath id="clip30_353_2413">
<rect width="125" height="125" fill="white" transform="translate(375 375)"/>
</clipPath>
<clipPath id="clip31_353_2413">
<rect width="125" height="125" fill="white" transform="translate(375 375)"/>
</clipPath>
</defs>
</svg>
