<svg width="120" height="49" viewBox="0 0 120 49" fill="none" xmlns="http://www.w3.org/2000/svg">
<g id="Layer_1" clip-path="url(#clip0_353_2380)">
<path id="Vector" d="M4.49438 12.8143C6.97656 12.8143 8.98876 10.0685 8.98876 6.68125C8.98876 3.29405 6.97656 0.548187 4.49438 0.548187C2.0122 0.548187 0 3.29405 0 6.68125C0 10.0685 2.0122 12.8143 4.49438 12.8143Z" fill="#00373E"/>
<g id="Group">
<path id="Vector_2" d="M53.0247 15.2982C53.0561 18.0844 51.1145 20.8355 47.9101 20.8355C46.8134 20.8355 45.4157 20.2616 44.337 19.6746C44.0044 19.495 43.7078 19.587 43.7033 19.99L43.6943 20.5814H43.2134V11.4913H43.6943C43.7213 13.6335 44.2426 17.0286 45.9595 18.8554C47.3168 20.2967 48.764 20.5026 49.6629 19.863C53.8606 16.8928 44.9213 9.66018 43.6449 7.5399C42.7954 6.12929 42.4314 4.59603 43.2988 2.85248C44.0224 1.39807 45.5056 0.504395 46.9572 0.504395C47.8606 0.504395 48.7415 0.714671 49.4651 1.03447C49.7797 1.17465 51.3527 2.07709 51.3572 1.2316V0.758479H51.8381V8.25834H51.3572C51.1595 -1.80427 42.3325 -0.0694854 45.9865 4.78878C47.5865 6.91345 50.3011 9.40172 51.7707 11.579C52.4089 12.5252 53.0067 13.6992 53.0247 15.2938V15.2982Z" fill="#00373E"/>
<path id="Vector_3" d="M58.5033 5.63427C59.4112 5.37142 60.3685 5.37142 61.2764 5.63427C63.6719 6.32205 65.7348 8.82346 65.7348 13.1385C65.7348 17.4536 63.6719 19.955 61.2764 20.6428C60.3685 20.9056 59.4112 20.9056 58.5033 20.6428C56.1078 19.955 54.0449 17.4536 54.0449 13.1385C54.0449 8.82346 56.1078 6.32205 58.5033 5.63427ZM62.6022 12.626C61.955 9.23525 60.5932 5.97597 58.5977 6.35271C56.5977 6.72946 56.5348 10.2604 57.182 13.6511C57.8292 17.0418 59.191 20.3011 61.1865 19.9243C63.1865 19.5476 63.2494 16.0167 62.6022 12.626Z" fill="#00373E"/>
</g>
<g id="Group_2">
<path id="Vector_4" d="M82.5977 2.34429V18.9912C82.5977 19.6089 83.1145 20.1127 83.7483 20.1127V20.5814H78.3011V20.1127C78.9348 20.1127 79.4516 19.6089 79.4516 18.9912V2.71665L76.4988 17.528L77.146 20.577H73.9325L70.1393 2.67285V18.9912C70.1393 19.6089 70.6561 20.1127 71.2898 20.1127V20.5814H68.4449V20.1127C69.0786 20.1127 69.5955 19.6089 69.5955 18.9912V2.34429C69.5955 1.87993 69.2988 1.4769 68.8853 1.31043C68.7056 1.25348 68.5123 1.22281 68.3101 1.22281V0.758453H72.9528L73.2808 2.30486L74.2651 6.94847L76.2292 16.2269L79.0606 2.01135L79.3078 0.758453H83.7528V1.22719C83.119 1.22719 82.6022 1.73098 82.6022 2.34867L82.5977 2.34429Z" fill="#00373E"/>
<path id="Vector_5" d="M85.3168 11.6315V5.6912H85.7752C85.7752 6.43593 86.0269 6.72506 86.8449 6.31327C87.8157 5.81825 88.791 5.43274 89.7078 5.43274C91.8382 5.43274 94.5528 6.42279 94.5528 9.1082V18.9912C94.5528 19.6089 95.0337 20.1127 95.6224 20.1127V20.5814H92.6876C92.1033 20.5814 91.6314 20.0864 91.6314 19.4731V18.3604C91.2449 19.8367 89.8471 20.8399 88.5438 20.8399C84.3505 20.8399 83.573 16.4635 85.4561 13.5196C86.8943 11.2679 90.0853 9.00744 91.4022 8.12691C91.3393 4.3025 85.9146 5.62111 85.7752 11.6359H85.3168V11.6315ZM91.4067 9.00744C82.6966 14.6236 91.4067 24.2788 91.4067 15.9991V9.00744Z" fill="#00373E"/>
<path id="Vector_6" d="M103.852 5.4371C105.434 5.4371 106.903 6.35706 106.903 8.22765V18.9956C106.903 19.6132 107.42 20.1127 108.054 20.1127V20.5814H102.607V20.1127C103.24 20.1127 103.757 19.6089 103.757 18.9912V7.95604C103.757 6.03289 100.638 5.71747 100.638 9.94053V18.9912C100.638 19.6089 101.155 20.1127 101.789 20.1127V20.5814H96.3416V20.1127C96.9753 20.1127 97.4921 19.6089 97.4921 18.9912V7.28578C97.4921 6.6681 96.9753 6.16431 96.3416 6.16431V5.69557H99.5011C100.13 5.69557 100.638 6.19059 100.638 6.8039V7.06237C101.272 6.02851 102.391 5.4371 103.856 5.4371H103.852Z" fill="#00373E"/>
<path id="Vector_7" d="M112.697 18.851L109.613 7.42597C109.429 6.65496 108.679 6.15993 107.78 6.15993V5.69119H113.892V6.15993C113.524 6.15993 113.222 6.10298 112.935 6.41402C112.755 6.61115 112.688 6.84333 112.746 7.08866L115.694 17.9398L118.198 6.82581C118.283 6.44468 117.946 6.16431 117.533 6.16431H117.124V5.69557H119.996V6.16431H119.789C119.263 6.16431 118.818 6.4403 118.719 6.8959L115.924 19.2803C115.088 22.8725 113.879 24.7606 110.903 24.7606C110.126 24.7606 109.222 24.6161 108.175 24.3532L108.831 21.44C113.321 23.683 117.357 21.5014 112.688 18.851H112.697Z" fill="#00373E"/>
</g>
<g id="Group_3">
<path id="Vector_8" d="M42.1034 44.3251V43.8564C42.7371 43.8564 43.254 43.3526 43.254 42.7349V26.088C43.254 25.4703 42.7371 24.9666 42.1034 24.9666V24.4978H47.6C60.8 24.4978 59.8967 44.3208 47.9281 44.3208C46.1978 44.3208 44.0315 44.3208 42.1034 44.3208V44.3251ZM46.4 25.8559V43.8608C53.4202 43.7951 54.5079 38.6039 53.591 33.6492C52.6382 28.5194 49.6045 25.1768 46.9663 25.1768C46.6337 25.1768 46.4 25.3871 46.4 25.8559Z" fill="#00373E"/>
<path id="Vector_9" d="M68.6203 34.648H60.9978C61.1956 39.6333 64.6383 45.9066 68.0135 40.584L68.4765 40.676C67.5147 43.2781 65.5596 44.5792 63.6046 44.5792C56.2877 44.5792 56.3282 29.1765 63.6046 29.1765C67.4787 29.1765 68.6158 32.9001 68.6158 34.6437L68.6203 34.648ZM65.9326 34.1837C65.9326 28.2258 61.0023 28.2916 60.9888 34.1837H65.9326Z" fill="#00373E"/>
<path id="Vector_10" d="M78.1709 37.3028C80.1169 39.9488 78.9619 44.5836 74.2518 44.5836C73.2226 44.5836 71.9372 44.1455 70.9214 43.7031C70.6113 43.5673 70.3327 43.6374 70.3282 43.9396V44.3865H69.8428V37.5043H70.3237C70.4675 46.8966 79.9776 44.5354 75.9057 39.9488C73.654 37.4123 69.8967 36.0017 69.8967 32.9702C69.8967 32.278 69.9776 31.5684 70.3506 30.9638C71.0293 29.8599 72.427 29.1852 73.7843 29.1852C74.6293 29.1852 75.4608 29.3473 76.1394 29.5883C76.4315 29.6934 77.9102 30.3768 77.9192 29.7372V29.4437H78.4001V35.0642H77.9192C77.7439 27.5424 69.4383 29.0582 72.872 32.738C74.3686 34.3414 76.9888 35.7082 78.1664 37.3115L78.1709 37.3028Z" fill="#00373E"/>
<path id="Vector_11" d="M83.0518 29.4393C83.681 29.4393 84.1888 29.9343 84.1888 30.5476V42.7349C84.1888 43.3526 84.7057 43.8564 85.3394 43.8564V44.3251H79.8922V43.8564C80.5259 43.8564 81.0428 43.3526 81.0428 42.7349V31.0251C81.0428 30.4075 80.5259 29.9037 79.8922 29.9037V29.4349H83.0518V29.4393ZM82.5169 24.2437C83.5012 24.2437 84.2967 25.0191 84.2967 25.9785C84.2967 26.9379 83.5012 27.7133 82.5169 27.7133C81.5327 27.7133 80.7372 26.9379 80.7372 25.9785C80.7372 25.0191 81.5327 24.2437 82.5169 24.2437Z" fill="#00373E"/>
<path id="Vector_12" d="M90.8 29.3342C91.7078 29.1239 92.6651 29.1239 93.573 29.3342C94.1618 29.4744 94.7326 29.6978 95.2584 30.0176C94.9932 28.3529 96.1528 26.6663 97.7932 25.9347L98.8225 28.1295C97.7483 28.2653 94.7505 29.3648 96.1887 30.7229C97.2944 31.7655 98.0314 33.3338 98.0314 35.4322C98.0314 41.1535 92.4899 43.0022 89.0022 40.7811C87.9281 41.4557 88.1438 42.9364 89.6269 42.77C91.155 42.5991 93.555 42.1085 94.6876 42.0997C98.1932 42.069 98.9753 45.4072 97.0292 47.1157C96.0449 47.9831 93.7258 48.5044 91.6045 48.5044C89.5955 48.5044 87.7573 47.9962 87.3932 46.8441C87.2359 46.3447 87.4427 45.8453 87.7798 45.4685C85.8786 44.4785 85.6359 41.7361 88.4944 40.4131C87.218 39.3793 86.3416 37.719 86.3416 35.4322C86.3416 31.9276 88.4045 29.8949 90.8 29.3342ZM88.6741 45.7708C88.6741 47.2471 93.2449 48.1671 94.773 47.5932C96.6247 46.8966 96.6921 45.14 95.182 45.1312C93.7213 45.1224 91.164 45.7883 89.4651 45.8321C89.182 45.8409 88.9168 45.819 88.6696 45.7708H88.6741ZM89.5416 35.8484C91.2269 43.0241 96.6067 42.5772 94.8314 35.016C93.146 27.8403 87.7663 28.2828 89.5416 35.8484Z" fill="#00373E"/>
<path id="Vector_13" d="M106.494 29.1808C108.076 29.1808 109.546 30.1008 109.546 31.9714V42.7393C109.546 43.357 110.063 43.8564 110.697 43.8564V44.3251H105.249V43.8564C105.883 43.8564 106.4 43.3526 106.4 42.7349V31.6998C106.4 29.7766 103.281 29.4612 103.281 33.6843V42.7349C103.281 43.3526 103.798 43.8564 104.431 43.8564V44.3251H98.9843V43.8564C99.618 43.8564 100.135 43.3526 100.135 42.7349V31.0251C100.135 30.4075 99.618 29.9037 98.9843 29.9037V29.4349H102.144C102.773 29.4349 103.281 29.93 103.281 30.5433V30.8017C103.915 29.7679 105.034 29.1765 106.499 29.1765L106.494 29.1808Z" fill="#00373E"/>
</g>
<path id="Vector_14" d="M17.0786 12.8143C19.5608 12.8143 21.573 10.0685 21.573 6.68125C21.573 3.29405 19.5608 0.548187 17.0786 0.548187C14.5964 0.548187 12.5842 3.29405 12.5842 6.68125C12.5842 10.0685 14.5964 12.8143 17.0786 12.8143Z" fill="#00373E"/>
<path id="Vector_15" d="M29.663 12.8143C32.1451 12.8143 34.1573 10.0685 34.1573 6.68125C34.1573 3.29405 32.1451 0.548187 29.663 0.548187C27.1808 0.548187 25.1686 3.29405 25.1686 6.68125C25.1686 10.0685 27.1808 12.8143 29.663 12.8143Z" fill="#00373E"/>
<path id="Vector_16" d="M4.49438 28.5851C6.97656 28.5851 8.98876 25.8392 8.98876 22.452C8.98876 19.0648 6.97656 16.3189 4.49438 16.3189C2.0122 16.3189 0 19.0648 0 22.452C0 25.8392 2.0122 28.5851 4.49438 28.5851Z" fill="#00373E"/>
<path id="Vector_17" d="M17.0786 28.5851C19.5608 28.5851 21.573 25.8392 21.573 22.452C21.573 19.0648 19.5608 16.3189 17.0786 16.3189C14.5964 16.3189 12.5842 19.0648 12.5842 22.452C12.5842 25.8392 14.5964 28.5851 17.0786 28.5851Z" fill="#00373E"/>
<path id="Vector_18" d="M29.663 28.5851C32.1451 28.5851 34.1573 25.8392 34.1573 22.452C34.1573 19.0648 32.1451 16.3189 29.663 16.3189C27.1808 16.3189 25.1686 19.0648 25.1686 22.452C25.1686 25.8392 27.1808 28.5851 29.663 28.5851Z" fill="#00373E"/>
<path id="Vector_19" d="M4.49438 44.3558C6.97656 44.3558 8.98876 41.6099 8.98876 38.2227C8.98876 34.8355 6.97656 32.0897 4.49438 32.0897C2.0122 32.0897 0 34.8355 0 38.2227C0 41.6099 2.0122 44.3558 4.49438 44.3558Z" fill="#00373E"/>
<path id="Vector_20" d="M17.0786 44.3558C19.5608 44.3558 21.573 41.6099 21.573 38.2227C21.573 34.8355 19.5608 32.0897 17.0786 32.0897C14.5964 32.0897 12.5842 34.8355 12.5842 38.2227C12.5842 41.6099 14.5964 44.3558 17.0786 44.3558Z" fill="#00373E"/>
<path id="Vector_21" d="M29.663 44.3558C32.1451 44.3558 34.1573 41.6099 34.1573 38.2227C34.1573 34.8355 32.1451 32.0897 29.663 32.0897C27.1808 32.0897 25.1686 34.8355 25.1686 38.2227C25.1686 41.6099 27.1808 44.3558 29.663 44.3558Z" fill="#00373E"/>
</g>
<defs>
<clipPath id="clip0_353_2380">
<rect width="120" height="48" fill="white" transform="translate(0 0.5)"/>
</clipPath>
</defs>
</svg>
