<svg width="137" height="179" viewBox="0 0 137 179" fill="none" xmlns="http://www.w3.org/2000/svg">
<path d="M18.0263 50.0086C27.9819 50.0086 36.0526 38.8138 36.0526 25.0043C36.0526 11.1948 27.9819 0 18.0263 0C8.07064 0 0 11.1948 0 25.0043C0 38.8138 8.07064 50.0086 18.0263 50.0086Z" fill="white"/>
<path d="M68.4994 50.0086C78.4551 50.0086 86.5257 38.8138 86.5257 25.0043C86.5257 11.1948 78.4551 0 68.4994 0C58.5438 0 50.4731 11.1948 50.4731 25.0043C50.4731 38.8138 58.5438 50.0086 68.4994 50.0086Z" fill="white"/>
<path d="M118.974 50.0086C128.929 50.0086 137 38.8138 137 25.0043C137 11.1948 128.929 0 118.974 0C109.018 0 100.947 11.1948 100.947 25.0043C100.947 38.8138 109.018 50.0086 118.974 50.0086Z" fill="white"/>
<path d="M18.0263 114.305C27.9819 114.305 36.0526 103.11 36.0526 89.3009C36.0526 75.4914 27.9819 64.2966 18.0263 64.2966C8.07064 64.2966 0 75.4914 0 89.3009C0 103.11 8.07064 114.305 18.0263 114.305Z" fill="white"/>
<path d="M68.4994 114.305C78.4551 114.305 86.5257 103.11 86.5257 89.3009C86.5257 75.4914 78.4551 64.2966 68.4994 64.2966C58.5438 64.2966 50.4731 75.4914 50.4731 89.3009C50.4731 103.11 58.5438 114.305 68.4994 114.305Z" fill="white"/>
<path d="M118.974 114.305C128.929 114.305 137 103.11 137 89.3009C137 75.4914 128.929 64.2966 118.974 64.2966C109.018 64.2966 100.947 75.4914 100.947 89.3009C100.947 103.11 109.018 114.305 118.974 114.305Z" fill="white"/>
<path d="M18.0263 178.602C27.9819 178.602 36.0526 167.407 36.0526 153.598C36.0526 139.788 27.9819 128.594 18.0263 128.594C8.07064 128.594 0 139.788 0 153.598C0 167.407 8.07064 178.602 18.0263 178.602Z" fill="white"/>
<path d="M68.4994 178.602C78.4551 178.602 86.5257 167.407 86.5257 153.598C86.5257 139.788 78.4551 128.594 68.4994 128.594C58.5438 128.594 50.4731 139.788 50.4731 153.598C50.4731 167.407 58.5438 178.602 68.4994 178.602Z" fill="white"/>
<path d="M118.974 178.602C128.929 178.602 137 167.407 137 153.598C137 139.788 128.929 128.594 118.974 128.594C109.018 128.594 100.947 139.788 100.947 153.598C100.947 167.407 109.018 178.602 118.974 178.602Z" fill="white"/>
</svg>
