<svg width="138" height="56" viewBox="0 0 138 56" fill="none" xmlns="http://www.w3.org/2000/svg">
<g clip-path="url(#clip0_353_2480)">
<path d="M5.16854 14.3668C8.02304 14.3668 10.3371 11.1632 10.3371 7.21152C10.3371 3.25979 8.02304 0.0562744 5.16854 0.0562744C2.31403 0.0562744 0 3.25979 0 7.21152C0 11.1632 2.31403 14.3668 5.16854 14.3668Z" fill="white"/>
<path d="M60.9785 17.2646C61.0146 20.5151 58.7818 23.7248 55.0967 23.7248C53.8355 23.7248 52.2281 23.0552 50.9877 22.3704C50.6052 22.1608 50.2641 22.2682 50.2589 22.7384L50.2486 23.4283H49.6955V12.8232H50.2486C50.2796 15.3225 50.8791 19.2834 52.8535 21.4146C54.4144 23.0961 56.0787 23.3363 57.1124 22.5901C61.9398 19.125 51.6596 10.6869 50.1917 8.21321C49.2149 6.56751 48.7962 4.7787 49.7937 2.74456C50.6259 1.04775 52.3315 0.00512695 54.0009 0.00512695C55.0398 0.00512695 56.0528 0.25045 56.885 0.623544C57.2468 0.787093 59.0558 1.83994 59.0609 0.853534V0.301558H59.614V9.0514H59.0609C58.8335 -2.68831 48.6825 -0.6644 52.8845 5.00358C54.7245 7.48236 57.8463 10.3853 59.5364 12.9255C60.2704 14.0294 60.9578 15.3991 60.9785 17.2595V17.2646Z" fill="white"/>
<path d="M67.2789 5.99C68.323 5.68335 69.4239 5.68335 70.4679 5.99C73.2227 6.79241 75.5951 9.71073 75.5951 14.745C75.5951 19.7792 73.2227 22.6975 70.4679 23.4999C69.4239 23.8066 68.323 23.8066 67.2789 23.4999C64.5241 22.6975 62.1517 19.7792 62.1517 14.745C62.1517 9.71073 64.5241 6.79241 67.2789 5.99ZM71.9926 14.147C71.2484 10.1912 69.6823 6.38865 67.3875 6.82819C65.0875 7.26772 65.0151 11.3871 65.7594 15.3429C66.5036 19.2988 68.0697 23.1013 70.3645 22.6617C72.6645 22.2222 72.7369 18.1028 71.9926 14.147Z" fill="white"/>
<path d="M94.9874 2.15166V21.573C94.9874 22.2937 95.5818 22.8814 96.3106 22.8814V23.4283H90.0463V22.8814C90.7751 22.8814 91.3694 22.2937 91.3694 21.573V2.58608L87.9737 19.866L88.718 23.4232H85.0225L80.6602 2.53497V21.573C80.6602 22.2937 81.2546 22.8814 81.9834 22.8814V23.4283H78.7117V22.8814C79.4405 22.8814 80.0348 22.2937 80.0348 21.573V2.15166C80.0348 1.6099 79.6937 1.1397 79.2182 0.945486C79.0115 0.879044 78.7892 0.843268 78.5566 0.843268V0.301514H83.8957L84.273 2.10566L85.405 7.5232L87.6636 18.3481L90.9198 1.76323L91.2041 0.301514H96.3157V0.848379C95.587 0.848379 94.9926 1.43613 94.9926 2.15677L94.9874 2.15166Z" fill="white"/>
<path d="M98.1144 12.9868V6.05643H98.6416C98.6416 6.92528 98.931 7.26259 99.8717 6.78217C100.988 6.20464 102.11 5.75488 103.164 5.75488C105.614 5.75488 108.736 6.90994 108.736 10.0429V21.5731C108.736 22.2937 109.289 22.8815 109.966 22.8815V23.4283H106.591C105.919 23.4283 105.376 22.8508 105.376 22.1353V20.8371C104.932 22.5595 103.324 23.7299 101.825 23.7299C97.0032 23.7299 96.109 18.6241 98.2746 15.1896C99.9285 12.5626 103.598 9.92537 105.113 8.89808C105.04 4.43627 98.8018 5.97465 98.6416 12.9919H98.1144V12.9868ZM105.118 9.92537C95.1011 16.4775 105.118 27.7419 105.118 18.0823V9.92537Z" fill="white"/>
<path d="M119.429 5.75989C121.249 5.75989 122.939 6.83317 122.939 9.01552V21.5781C122.939 22.2987 123.533 22.8814 124.262 22.8814V23.4282H117.998V22.8814C118.727 22.8814 119.321 22.2936 119.321 21.573V8.69865C119.321 6.45497 115.734 6.08698 115.734 11.0139V21.573C115.734 22.2936 116.328 22.8814 117.057 22.8814V23.4282H110.793V22.8814C111.522 22.8814 112.116 22.2936 112.116 21.573V7.91668C112.116 7.19605 111.522 6.6083 110.793 6.6083V6.06143H114.426C115.15 6.06143 115.734 6.63896 115.734 7.35448V7.65603C116.463 6.44986 117.75 5.75989 119.435 5.75989H119.429Z" fill="white"/>
<path d="M129.601 21.4095L126.056 8.08031C125.844 7.18079 124.98 6.60326 123.947 6.60326V6.0564H130.976V6.60326C130.552 6.60326 130.206 6.53682 129.875 6.89969C129.668 7.12968 129.591 7.40056 129.658 7.68677L133.049 20.3464L135.927 7.38012C136.026 6.93547 135.638 6.60837 135.163 6.60837H134.692V6.06151H137.995V6.60837H137.757C137.152 6.60837 136.641 6.93036 136.527 7.46189L133.312 21.9104C132.351 26.1013 130.96 28.3041 127.539 28.3041C126.645 28.3041 125.606 28.1354 124.402 27.8288L125.156 24.43C130.32 27.0468 134.961 24.5016 129.591 21.4095H129.601Z" fill="white"/>
<path d="M48.4188 51.1293V50.5825C49.1476 50.5825 49.742 49.9947 49.742 49.2741V29.8527C49.742 29.1321 49.1476 28.5443 48.4188 28.5443V27.9974H54.7399C69.9199 27.9974 68.8811 51.1242 55.1172 51.1242C53.1274 51.1242 50.6361 51.1242 48.4188 51.1242V51.1293ZM53.3599 29.5818V50.5876C61.4332 50.5109 62.684 44.4545 61.6296 38.6741C60.5339 32.6892 57.0451 28.7896 54.0112 28.7896C53.6287 28.7896 53.3599 29.0349 53.3599 29.5818Z" fill="white"/>
<path d="M78.9132 39.8394H70.1474C70.3748 45.6556 74.3339 52.9744 78.2155 46.7647L78.7479 46.872C77.6418 49.9079 75.3935 51.4258 73.1452 51.4258C64.7308 51.4258 64.7773 33.4559 73.1452 33.4559C77.6004 33.4559 78.9081 37.8002 78.9081 39.8343L78.9132 39.8394ZM75.8225 39.2977C75.8225 32.3469 70.1526 32.4235 70.1371 39.2977H75.8225Z" fill="white"/>
<path d="M89.8964 42.9367C92.1344 46.0236 90.8061 51.431 85.3894 51.431C84.2058 51.431 82.7276 50.9199 81.5595 50.4037C81.2029 50.2452 80.8825 50.327 80.8773 50.6797V51.201H80.3191V43.1718H80.8721C81.0375 54.1295 91.9742 51.3747 87.2915 46.0236C84.702 43.0644 80.3811 41.4187 80.3811 37.882C80.3811 37.0745 80.4742 36.2465 80.9031 35.5412C81.6836 34.2533 83.291 33.4662 84.8519 33.4662C85.8236 33.4662 86.7798 33.6553 87.5602 33.9364C87.8962 34.059 89.5966 34.8563 89.607 34.1102V33.7677H90.16V40.325H89.607C89.4054 31.5496 79.8539 33.318 83.8027 37.6111C85.5238 39.4817 88.5371 41.0763 89.8912 42.9469L89.8964 42.9367Z" fill="white"/>
<path d="M95.5093 33.7626C96.2329 33.7626 96.817 34.3401 96.817 35.0556V49.2741C96.817 49.9947 97.4114 50.5825 98.1401 50.5825V51.1294H91.8759V50.5825C92.6046 50.5825 93.199 49.9947 93.199 49.2741V35.6127C93.199 34.8921 92.6046 34.3043 91.8759 34.3043V33.7575H95.5093V33.7626ZM94.8943 27.701C96.0262 27.701 96.941 28.6057 96.941 29.725C96.941 30.8442 96.0262 31.7489 94.8943 31.7489C93.7624 31.7489 92.8475 30.8442 92.8475 29.725C92.8475 28.6057 93.7624 27.701 94.8943 27.701Z" fill="white"/>
<path d="M104.42 33.6399C105.464 33.3946 106.565 33.3946 107.609 33.6399C108.286 33.8034 108.942 34.0641 109.547 34.4372C109.242 32.495 110.576 30.5273 112.462 29.6738L113.646 32.2344C112.41 32.3928 108.963 33.6757 110.617 35.26C111.888 36.4764 112.736 38.3061 112.736 40.7542C112.736 47.4291 106.363 49.5858 102.352 46.9946C101.117 47.7817 101.365 49.5092 103.071 49.315C104.828 49.1156 107.588 48.5432 108.891 48.533C112.922 48.4972 113.821 52.3917 111.584 54.385C110.452 55.3969 107.785 56.0051 105.345 56.0051C103.035 56.0051 100.921 55.4123 100.502 54.0681C100.321 53.4855 100.559 52.9028 100.947 52.4633C98.7604 51.3082 98.4813 48.1088 101.768 46.5653C100.301 45.3591 99.2927 43.4221 99.2927 40.7542C99.2927 36.6655 101.665 34.2941 104.42 33.6399ZM101.975 52.8159C101.975 54.5383 107.232 55.6116 108.989 54.9421C111.118 54.1294 111.196 52.08 109.459 52.0697C107.779 52.0595 104.839 52.8364 102.885 52.8875C102.559 52.8977 102.254 52.8721 101.97 52.8159H101.975ZM102.973 41.2398C104.911 49.6114 111.098 49.0901 109.056 40.2687C107.118 31.8971 100.931 32.4133 102.973 41.2398Z" fill="white"/>
<path d="M122.469 33.461C124.288 33.461 125.978 34.5343 125.978 36.7167V49.2792C125.978 49.9999 126.572 50.5825 127.301 50.5825V51.1294H121.037V50.5825C121.766 50.5825 122.36 49.9948 122.36 49.2741V36.3998C122.36 34.1561 118.773 33.7881 118.773 38.715V49.2741C118.773 49.9948 119.367 50.5825 120.096 50.5825V51.1294H113.832V50.5825C114.561 50.5825 115.155 49.9948 115.155 49.2741V35.6127C115.155 34.8921 114.561 34.3043 113.832 34.3043V33.7575H117.465C118.189 33.7575 118.773 34.335 118.773 35.0505V35.3521C119.502 34.1459 120.789 33.4559 122.474 33.4559L122.469 33.461Z" fill="white"/>
<path d="M19.6405 14.3668C22.495 14.3668 24.809 11.1632 24.809 7.21152C24.809 3.25979 22.495 0.0562744 19.6405 0.0562744C16.786 0.0562744 14.4719 3.25979 14.4719 7.21152C14.4719 11.1632 16.786 14.3668 19.6405 14.3668Z" fill="white"/>
<path d="M34.1124 14.3668C36.9669 14.3668 39.2809 11.1632 39.2809 7.21152C39.2809 3.25979 36.9669 0.0562744 34.1124 0.0562744C31.2579 0.0562744 28.9438 3.25979 28.9438 7.21152C28.9438 11.1632 31.2579 14.3668 34.1124 14.3668Z" fill="white"/>
<path d="M5.16854 32.7659C8.02304 32.7659 10.3371 29.5624 10.3371 25.6107C10.3371 21.659 8.02304 18.4554 5.16854 18.4554C2.31403 18.4554 0 21.659 0 25.6107C0 29.5624 2.31403 32.7659 5.16854 32.7659Z" fill="white"/>
<path d="M19.6405 32.7659C22.495 32.7659 24.809 29.5624 24.809 25.6107C24.809 21.659 22.495 18.4554 19.6405 18.4554C16.786 18.4554 14.4719 21.659 14.4719 25.6107C14.4719 29.5624 16.786 32.7659 19.6405 32.7659Z" fill="white"/>
<path d="M34.1124 32.7659C36.9669 32.7659 39.2809 29.5624 39.2809 25.6107C39.2809 21.659 36.9669 18.4554 34.1124 18.4554C31.2579 18.4554 28.9438 21.659 28.9438 25.6107C28.9438 29.5624 31.2579 32.7659 34.1124 32.7659Z" fill="white"/>
<path d="M5.16854 51.1651C8.02304 51.1651 10.3371 47.9616 10.3371 44.0099C10.3371 40.0581 8.02304 36.8546 5.16854 36.8546C2.31403 36.8546 0 40.0581 0 44.0099C0 47.9616 2.31403 51.1651 5.16854 51.1651Z" fill="white"/>
<path d="M19.6405 51.1651C22.495 51.1651 24.809 47.9616 24.809 44.0099C24.809 40.0581 22.495 36.8546 19.6405 36.8546C16.786 36.8546 14.4719 40.0581 14.4719 44.0099C14.4719 47.9616 16.786 51.1651 19.6405 51.1651Z" fill="white"/>
<path d="M34.1124 51.1651C36.9669 51.1651 39.2809 47.9616 39.2809 44.0099C39.2809 40.0581 36.9669 36.8546 34.1124 36.8546C31.2579 36.8546 28.9438 40.0581 28.9438 44.0099C28.9438 47.9616 31.2579 51.1651 34.1124 51.1651Z" fill="white"/>
</g>
<defs>
<clipPath id="clip0_353_2480">
<rect width="138" height="56" fill="white"/>
</clipPath>
</defs>
</svg>
