<svg width="16" height="16" viewBox="0 0 16 16" fill="none" xmlns="http://www.w3.org/2000/svg">
<g id="Frame" clip-path="url(#clip0_425_61)">
<path id="Vector" d="M11.5 6.5H14.5V3.5" stroke="#19191A" stroke-width="2" stroke-linecap="round" stroke-linejoin="round"/>
<path id="Vector_2" d="M11.7747 12.0002C10.9884 12.7421 10.001 13.2359 8.93577 13.4198C7.87053 13.6037 6.77471 13.4697 5.78523 13.0344C4.79574 12.5991 3.95648 11.8818 3.37229 10.9723C2.78811 10.0627 2.48491 9.00116 2.50058 7.92028C2.51625 6.83939 2.85009 5.78708 3.4604 4.89484C4.07071 4.0026 4.93041 3.30999 5.93209 2.90356C6.93378 2.49712 8.03303 2.39487 9.09249 2.6096C10.152 2.82432 11.1246 3.34649 11.889 4.11087L14.4997 6.50024" stroke="#19191A" stroke-width="2" stroke-linecap="round" stroke-linejoin="round"/>
</g>
<defs>
<clipPath id="clip0_425_61">
<rect width="16" height="16" fill="white"/>
</clipPath>
</defs>
</svg>
